<?xml version="1.0" standalone="no"?><!DOCTYPE svg PUBLIC "-//W3C//DTD SVG 1.1//EN" "http://www.w3.org/Graphics/SVG/1.1/DTD/svg11.dtd"><svg t="1743916189640" class="icon" viewBox="0 0 1024 1024" version="1.1" xmlns="http://www.w3.org/2000/svg" p-id="1373" xmlns:xlink="http://www.w3.org/1999/xlink" width="200" height="200"><path d="M958.027711 260.422574l-41.485825 23.444107c39.127119 69.224444 59.80749 148.110052 59.80749 228.133319 0 256.038716-208.31066 464.349376-464.349376 464.349376C255.955328 976.349376 47.650624 768.038716 47.650624 512S255.955328 47.65658 512 47.65658c92.561337 0 181.936039 27.148943 258.456985 78.516316l26.559267-39.567887C712.609128 29.948417 614.055724 0 512 0 229.681965 0 0 229.681965 0 511.994044s229.681965 512 512 512c282.312079 0 512-229.687921 512-512 0-88.213218-22.812736-175.211345-65.972289-251.57147z" fill="#040000" p-id="1374"></path><path d="M424.81127 652.682511L267.278307 495.149548l-33.700904 33.688991 191.233867 191.239824 365.617283-365.623239-33.694947-33.688991z" fill="#040000" p-id="1375"></path></svg>